<svg width="40" height="40" viewBox="0 0 40 40" fill="none" xmlns="http://www.w3.org/2000/svg">
<g clip-path="url(#clip0_2032_4432)">
<rect width="40" height="40" rx="20" fill="black"/>
<path fill-rule="evenodd" clip-rule="evenodd" d="M16.4089 12.727L26.2977 12.6158C26.9045 12.609 27.3909 13.0954 27.3841 13.7022L27.2729 23.591C27.266 24.1978 26.7686 24.6953 26.1618 24.7021C25.5549 24.7089 25.0685 24.2226 25.0754 23.6157L25.1567 16.3796L14.4827 27.0536C14.0488 27.4875 13.3531 27.4953 12.9289 27.071C12.5046 26.6468 12.5124 25.9511 12.9463 25.5172L23.6203 14.8432L16.3842 14.9246C15.7774 14.9314 15.291 14.445 15.2978 13.8382C15.3046 13.2313 15.8021 12.7339 16.4089 12.727Z" fill="white"/>
</g>
<defs>
<clipPath id="clip0_2032_4432">
<rect width="40" height="40" fill="white"/>
</clipPath>
</defs>
</svg>
