<svg width="21" height="22" viewBox="0 0 21 22" fill="none" xmlns="http://www.w3.org/2000/svg">
<g clip-path="url(#clip0_2032_4433)">
<path fill-rule="evenodd" clip-rule="evenodd" d="M7.94475 5.18173L15.8558 5.09276C16.3412 5.0873 16.7304 5.47642 16.7249 5.96188L16.6359 13.8729C16.6305 14.3584 16.2325 14.7563 15.747 14.7618C15.2616 14.7673 14.8725 14.3781 14.8779 13.8927L14.943 8.10375L6.40382 16.643C6.05668 16.9901 5.50013 16.9963 5.16072 16.6569C4.82131 16.3175 4.82757 15.761 5.1747 15.4138L13.7139 6.87464L7.92497 6.93974C7.43951 6.9452 7.0504 6.55608 7.05586 6.07062C7.06132 5.58516 7.45929 5.18719 7.94475 5.18173Z" fill="black"/>
</g>
<defs>
<clipPath id="clip0_2032_4433">
<rect width="20.3649" height="20.3649" fill="white" transform="translate(0.635132 0.817627)"/>
</clipPath>
</defs>
</svg>
