<svg width="50" height="50" viewBox="0 0 50 50" fill="none" xmlns="http://www.w3.org/2000/svg">
<g clip-path="url(#clip0_2070_6050)">
<circle cx="25" cy="25" r="25" fill="#363F72"/>
<mask id="mask0_2070_6050" style="mask-type:alpha" maskUnits="userSpaceOnUse" x="13" y="13" width="24" height="24">
<rect x="13" y="13" width="24" height="24" fill="#D9D9D9"/>
</mask>
<g mask="url(#mask0_2070_6050)">
<path d="M21.7749 21.95C21.8916 22.0333 22.0124 22.0542 22.1374 22.0125C22.2624 21.9708 22.3666 21.8917 22.4499 21.775L24.4249 18.525L22.9499 16.075C22.7499 15.7417 22.4624 15.575 22.0874 15.575C21.7124 15.575 21.4249 15.7417 21.2249 16.075L19.0249 19.725C18.9416 19.8417 18.9208 19.9625 18.9624 20.0875C19.0041 20.2125 19.0833 20.3167 19.1999 20.4L21.7749 21.95ZM31.8749 29L29.9249 25.725C29.8583 25.5917 29.8416 25.4625 29.8749 25.3375C29.9083 25.2125 29.9833 25.1167 30.0999 25.05L32.6999 23.55C32.8166 23.4833 32.9374 23.4667 33.0624 23.5C33.1874 23.5333 33.2916 23.6083 33.3749 23.725L34.7249 25.975C34.9083 26.2583 35.0041 26.5792 35.0124 26.9375C35.0208 27.2958 34.9499 27.6167 34.7999 27.9C34.6333 28.2333 34.3874 28.5 34.0624 28.7C33.7374 28.9 33.3833 29 32.9999 29H31.8749ZM28.1499 35.15L25.3499 32.35C25.2499 32.25 25.1999 32.1333 25.1999 32C25.1999 31.8667 25.2499 31.75 25.3499 31.65L28.1499 28.85C28.3166 28.6833 28.4999 28.6417 28.6999 28.725C28.8999 28.8083 28.9999 28.9667 28.9999 29.2V30H33.7499L32.2999 32.9C32.1166 33.2333 31.8666 33.5 31.5499 33.7C31.2333 33.9 30.8833 34 30.4999 34H28.9999V34.8C28.9999 35.0333 28.8999 35.1917 28.6999 35.275C28.4999 35.3583 28.3166 35.3167 28.1499 35.15ZM19.3249 34C18.9916 34 18.6874 33.9125 18.4124 33.7375C18.1374 33.5625 17.9333 33.3333 17.7999 33.05C17.6666 32.7833 17.6041 32.5042 17.6124 32.2125C17.6208 31.9208 17.6999 31.65 17.8499 31.4L18.6999 30H22.4999C22.6333 30 22.7499 30.05 22.8499 30.15C22.9499 30.25 22.9999 30.3667 22.9999 30.5V33.5C22.9999 33.6333 22.9499 33.75 22.8499 33.85C22.7499 33.95 22.6333 34 22.4999 34H19.3249ZM16.8499 31.15L15.2249 27.9C15.0749 27.6 15.0041 27.2792 15.0124 26.9375C15.0208 26.5958 15.1166 26.275 15.2999 25.975L15.6999 25.3L15.0249 24.9C14.8416 24.7833 14.7666 24.6125 14.7999 24.3875C14.8333 24.1625 14.9583 24.025 15.1749 23.975L18.9999 23.025C19.1333 22.9917 19.2583 23.0083 19.3749 23.075C19.4916 23.1417 19.5666 23.2417 19.5999 23.375L20.5499 27.225C20.5833 27.3417 20.5791 27.4458 20.5374 27.5375C20.4958 27.6292 20.4374 27.7042 20.3624 27.7625C20.2874 27.8208 20.1999 27.8542 20.0999 27.8625C19.9999 27.8708 19.8999 27.8417 19.7999 27.775L19.1249 27.35L16.8499 31.15ZM29.8749 22.475L26.0499 21.525C25.8333 21.475 25.7124 21.3375 25.6874 21.1125C25.6624 20.8875 25.7416 20.7167 25.9249 20.6L26.5999 20.2L23.4749 15H26.9999C27.3499 15 27.6791 15.0875 27.9874 15.2625C28.2958 15.4375 28.5416 15.675 28.7249 15.975L30.0249 18.15L30.6749 17.75C30.7749 17.6833 30.8749 17.6542 30.9749 17.6625C31.0749 17.6708 31.1624 17.7042 31.2374 17.7625C31.3124 17.8208 31.3708 17.8958 31.4124 17.9875C31.4541 18.0792 31.4583 18.1833 31.4249 18.3L30.4749 22.125C30.4416 22.2583 30.3666 22.3583 30.2499 22.425C30.1333 22.4917 30.0083 22.5083 29.8749 22.475Z" fill="#F9FAFB"/>
</g>
</g>
<defs>
<clipPath id="clip0_2070_6050">
<rect width="50" height="50" fill="white"/>
</clipPath>
</defs>
</svg>
