<svg width="50" height="50" viewBox="0 0 50 50" fill="none" xmlns="http://www.w3.org/2000/svg">
<g clip-path="url(#clip0_2070_6049)">
<circle cx="25" cy="25" r="25" fill="#363F72"/>
<mask id="mask0_2070_6049" style="mask-type:alpha" maskUnits="userSpaceOnUse" x="13" y="13" width="24" height="24">
<rect x="13" y="13" width="24" height="24" fill="#D9D9D9"/>
</mask>
<g mask="url(#mask0_2070_6049)">
<path d="M29.5 32.1L28.05 30.65C27.95 30.55 27.8333 30.5 27.7 30.5C27.5667 30.5 27.45 30.55 27.35 30.65C27.25 30.75 27.2 30.8667 27.2 31C27.2 31.1333 27.25 31.25 27.35 31.35L29.3 33.3C29.5 33.5 29.7333 33.6 30 33.6C30.2667 33.6 30.5 33.5 30.7 33.3L32.65 31.35C32.75 31.25 32.8 31.1333 32.8 31C32.8 30.8667 32.75 30.75 32.65 30.65C32.55 30.55 32.4333 30.5 32.3 30.5C32.1667 30.5 32.05 30.55 31.95 30.65L30.5 32.1V28.5C30.5 28.3667 30.45 28.25 30.35 28.15C30.25 28.05 30.1333 28 30 28C29.8667 28 29.75 28.05 29.65 28.15C29.55 28.25 29.5 28.3667 29.5 28.5V32.1ZM24 15.275C24.3167 15.0917 24.65 15 25 15C25.35 15 25.6833 15.0917 26 15.275L33 19.3C33.3167 19.4833 33.5625 19.725 33.7375 20.025C33.9125 20.325 34 20.6583 34 21.025V25.25C33.4333 24.85 32.8125 24.5417 32.1375 24.325C31.4625 24.1083 30.75 24 30 24C29.7167 24 29.4458 24.0125 29.1875 24.0375C28.9292 24.0625 28.6667 24.1083 28.4 24.175L32 22.1V21.05L30.925 20.425L25 23.85L19.075 20.425L18 21.05V22.1L24 25.575V27.4C23.6833 27.9333 23.4375 28.5 23.2625 29.1C23.0875 29.7 23 30.3333 23 31C23 31.7 23.0958 32.3667 23.2875 33C23.4792 33.6333 23.75 34.225 24.1 34.775C24.0833 34.7583 24.0667 34.75 24.05 34.75C24.0333 34.75 24.0167 34.7417 24 34.725L17 30.7C16.6833 30.5167 16.4375 30.275 16.2625 29.975C16.0875 29.675 16 29.3417 16 28.975V21.025C16 20.6583 16.0875 20.325 16.2625 20.025C16.4375 19.725 16.6833 19.4833 17 19.3L24 15.275ZM30 36C28.6167 36 27.4375 35.5125 26.4625 34.5375C25.4875 33.5625 25 32.3833 25 31C25 29.6167 25.4875 28.4375 26.4625 27.4625C27.4375 26.4875 28.6167 26 30 26C31.3833 26 32.5625 26.4875 33.5375 27.4625C34.5125 28.4375 35 29.6167 35 31C35 32.3833 34.5125 33.5625 33.5375 34.5375C32.5625 35.5125 31.3833 36 30 36Z" fill="#F9FAFB"/>
</g>
</g>
<defs>
<clipPath id="clip0_2070_6049">
<rect width="50" height="50" fill="white"/>
</clipPath>
</defs>
</svg>
