<svg width="32" height="32" viewBox="0 0 32 32" fill="none" xmlns="http://www.w3.org/2000/svg">
<g clip-path="url(#clip0_2036_4552)">
<rect width="32" height="32" rx="16" fill="white"/>
<path fill-rule="evenodd" clip-rule="evenodd" d="M13.1271 10.1817L21.0381 10.0928C21.5236 10.0873 21.9127 10.4764 21.9073 10.9619L21.8183 18.8729C21.8128 19.3584 21.4149 19.7563 20.9294 19.7618C20.4439 19.7673 20.0548 19.3781 20.0603 18.8927L20.1254 13.1038L11.5862 21.643C11.2391 21.9901 10.6825 21.9963 10.3431 21.6569C10.0037 21.3175 10.0099 20.761 10.3571 20.4138L18.8963 11.8746L13.1073 11.9397C12.6219 11.9452 12.2328 11.5561 12.2382 11.0706C12.2437 10.5852 12.6417 10.1872 13.1271 10.1817Z" fill="black"/>
</g>
<defs>
<clipPath id="clip0_2036_4552">
<rect width="32" height="32" fill="white"/>
</clipPath>
</defs>
</svg>
