<svg width="29" height="25" viewBox="0 0 29 25" fill="none" xmlns="http://www.w3.org/2000/svg">
<g clip-path="url(#clip0_2051_4752)">
<g clip-path="url(#clip1_2051_4752)">
<path d="M20.4834 20.4416H16.9214V14.9183C16.9214 13.6012 16.8977 11.9057 15.0688 11.9057C13.2136 11.9057 12.9297 13.3407 12.9297 14.8224V20.4412H9.36769V9.08306H12.7872V10.6353H12.8351C13.1773 10.0559 13.6718 9.57932 14.266 9.25622C14.8601 8.93313 15.5316 8.77565 16.209 8.80054C19.8192 8.80054 20.4849 11.1518 20.4849 14.2107L20.4834 20.4416ZM5.34857 7.53048C4.93974 7.53056 4.54006 7.41059 4.20009 7.18575C3.86012 6.96092 3.59514 6.64131 3.43862 6.26735C3.2821 5.89339 3.24108 5.48187 3.32077 5.08483C3.40045 4.68779 3.59727 4.32306 3.8863 4.03677C4.17533 3.75048 4.54362 3.55549 4.94458 3.47644C5.34554 3.3974 5.76116 3.43786 6.13889 3.5927C6.51663 3.74754 6.83951 4.00982 7.0667 4.34636C7.2939 4.6829 7.41521 5.07859 7.41528 5.4834C7.41533 5.75218 7.3619 6.01833 7.25807 6.26667C7.15423 6.51501 7.00203 6.74066 6.81012 6.93075C6.61821 7.12084 6.39034 7.27164 6.13957 7.37454C5.8888 7.47744 5.62002 7.53043 5.34857 7.53048ZM7.12957 20.4416H3.56386V9.08306H7.12957V20.4416ZM22.2592 0.161778H1.77396C1.309 0.156583 0.860958 0.334375 0.528324 0.656087C0.195689 0.977798 0.00567455 1.41711 0 1.87748V22.2451C0.00548033 22.7057 0.195384 23.1453 0.528006 23.4674C0.860629 23.7894 1.30877 23.9676 1.77396 23.9627H22.2592C22.7253 23.9684 23.1747 23.7908 23.5086 23.4688C23.8426 23.1467 24.0338 22.7066 24.0402 22.2451V1.87601C24.0336 1.41472 23.8423 0.974916 23.5083 0.653212C23.1744 0.331509 22.7251 0.154224 22.2592 0.160308" fill="white"/>
</g>
</g>
<defs>
<clipPath id="clip0_2051_4752">
<rect width="28.4308" height="24" fill="white" transform="translate(0 0.160156)"/>
</clipPath>
<clipPath id="clip1_2051_4752">
<rect width="28.4308" height="24" fill="white" transform="translate(0 0.160156)"/>
</clipPath>
</defs>
</svg>
