<svg width="24" height="25" viewBox="0 0 24 25" fill="none" xmlns="http://www.w3.org/2000/svg">
<g clip-path="url(#clip0_2051_4751)">
<g clip-path="url(#clip1_2051_4751)">
<path d="M24 12.1604C24 5.53301 18.6274 0.160427 12 0.160427C5.37258 0.160427 0 5.53301 0 12.1604C0 18.15 4.38823 23.1144 10.125 24.0146V15.6292H7.07813V12.1604H10.125V9.51668C10.125 6.50918 11.9165 4.84793 14.6576 4.84793C15.9705 4.84793 17.3438 5.0823 17.3438 5.0823V8.03543H15.8306C14.3399 8.03543 13.875 8.96043 13.875 9.90942V12.1604H17.2031L16.6711 15.6292H13.875V24.0146C19.6118 23.1144 24 18.15 24 12.1604Z" fill="white"/>
</g>
</g>
<defs>
<clipPath id="clip0_2051_4751">
<rect width="24" height="24" fill="white" transform="translate(0 0.160156)"/>
</clipPath>
<clipPath id="clip1_2051_4751">
<rect width="24" height="24" fill="white" transform="translate(0 0.160156)"/>
</clipPath>
</defs>
</svg>
