<svg width="24" height="24" viewBox="0 0 24 24" fill="none" xmlns="http://www.w3.org/2000/svg">
<g clip-path="url(#clip0_2078_6237)">
<mask id="mask0_2078_6237" style="mask-type:alpha" maskUnits="userSpaceOnUse" x="0" y="0" width="24" height="24">
<rect width="24" height="24" fill="#D9D9D9"/>
</mask>
<g mask="url(#mask0_2078_6237)">
<path d="M3.97656 21V18H7.07656L4.52656 9.65002C4.07656 9.40002 3.70573 9.03336 3.41406 8.55002C3.1224 8.06669 2.97656 7.55002 2.97656 7.00002C2.97656 6.16669 3.26823 5.45836 3.85156 4.87502C4.4349 4.29169 5.14323 4.00002 5.97656 4.00002C6.62656 4.00002 7.20573 4.18752 7.71406 4.56252C8.2224 4.93752 8.57656 5.41669 8.77656 6.00002H11.9766V5.00002C11.9766 4.71669 12.0724 4.47919 12.2641 4.28752C12.4557 4.09586 12.6932 4.00002 12.9766 4.00002C13.1266 4.00002 13.2724 4.03336 13.4141 4.10002C13.5557 4.16669 13.6766 4.26669 13.7766 4.40002L15.4766 2.80002C15.6266 2.65002 15.8057 2.55419 16.0141 2.51252C16.2224 2.47086 16.4266 2.50002 16.6266 2.60002L20.5266 4.40002C20.7266 4.50002 20.8641 4.64586 20.9391 4.83752C21.0141 5.02919 21.0099 5.21669 20.9266 5.40002C20.8266 5.60002 20.6807 5.72919 20.4891 5.78752C20.2974 5.84586 20.1099 5.83336 19.9266 5.75002L16.3266 4.10002L13.9766 6.30002V7.70002L16.3266 9.85002L19.9266 8.20002C20.1099 8.11669 20.3016 8.10836 20.5016 8.17502C20.7016 8.24169 20.8432 8.36669 20.9266 8.55002C21.0266 8.75002 21.0349 8.94169 20.9516 9.12502C20.8682 9.30836 20.7266 9.45002 20.5266 9.55002L16.6266 11.4C16.4266 11.5 16.2224 11.5292 16.0141 11.4875C15.8057 11.4459 15.6266 11.35 15.4766 11.2L13.7766 9.60002C13.6766 9.70002 13.5557 9.79169 13.4141 9.87502C13.2724 9.95836 13.1266 10 12.9766 10C12.6932 10 12.4557 9.90419 12.2641 9.71252C12.0724 9.52086 11.9766 9.28336 11.9766 9.00002V8.00002H8.77656C8.72656 8.13336 8.6724 8.25836 8.61406 8.37502C8.55573 8.49169 8.47656 8.61669 8.37656 8.75002L13.3766 18H16.9766V21H3.97656ZM5.97656 8.00002C6.2599 8.00002 6.4974 7.90419 6.68906 7.71252C6.88073 7.52086 6.97656 7.28336 6.97656 7.00002C6.97656 6.71669 6.88073 6.47919 6.68906 6.28752C6.4974 6.09586 6.2599 6.00002 5.97656 6.00002C5.69323 6.00002 5.45573 6.09586 5.26406 6.28752C5.0724 6.47919 4.97656 6.71669 4.97656 7.00002C4.97656 7.28336 5.0724 7.52086 5.26406 7.71252C5.45573 7.90419 5.69323 8.00002 5.97656 8.00002Z" fill="#F9FAFB"/>
</g>
</g>
<defs>
<clipPath id="clip0_2078_6237">
<rect width="24" height="24" fill="white"/>
</clipPath>
</defs>
</svg>
