<svg width="24" height="24" viewBox="0 0 24 24" fill="none" xmlns="http://www.w3.org/2000/svg">
<g clip-path="url(#clip0_2078_6238)">
<mask id="mask0_2078_6238" style="mask-type:alpha" maskUnits="userSpaceOnUse" x="0" y="0" width="24" height="24">
<rect width="24" height="24" fill="#D9D9D9"/>
</mask>
<g mask="url(#mask0_2078_6238)">
<path d="M12 22C9.68333 21.4167 7.77083 20.0875 6.2625 18.0125C4.75417 15.9375 4 13.6333 4 11.1V5L12 2L20 5V11.1C20 12.15 19.8625 13.1708 19.5875 14.1625C19.3125 15.1542 18.9167 16.1 18.4 17L15.45 14.05C15.6333 13.7333 15.7708 13.4042 15.8625 13.0625C15.9542 12.7208 16 12.3667 16 12C16 10.9 15.6083 9.95833 14.825 9.175C14.0417 8.39167 13.1 8 12 8C10.9 8 9.95833 8.39167 9.175 9.175C8.39167 9.95833 8 10.9 8 12C8 13.1 8.39167 14.0417 9.175 14.825C9.95833 15.6083 10.9 16 12 16C12.35 16 12.6958 15.9542 13.0375 15.8625C13.3792 15.7708 13.7 15.6333 14 15.45L17.225 18.65C16.525 19.4667 15.7375 20.1667 14.8625 20.75C13.9875 21.3333 13.0333 21.75 12 22ZM12 14C11.45 14 10.9792 13.8042 10.5875 13.4125C10.1958 13.0208 10 12.55 10 12C10 11.45 10.1958 10.9792 10.5875 10.5875C10.9792 10.1958 11.45 10 12 10C12.55 10 13.0208 10.1958 13.4125 10.5875C13.8042 10.9792 14 11.45 14 12C14 12.55 13.8042 13.0208 13.4125 13.4125C13.0208 13.8042 12.55 14 12 14Z" fill="#F9FAFB"/>
</g>
</g>
<defs>
<clipPath id="clip0_2078_6238">
<rect width="24" height="24" fill="white"/>
</clipPath>
</defs>
</svg>
